<svg xmlns="http://www.w3.org/2000/svg" viewBox="0 0 640 400" width="640" height="400">
  <style>
    @keyframes roll { 0% { transform: translateX(-300px); } 100% { transform: translateX(0); } }
    @keyframes bump { 0%,100% { transform: translateY(0); } 40% { transform: translateY(-2px); } 60% { transform: translateY(1px); } }
    @keyframes wheelSpin { from { transform: rotate(0deg); } to { transform: rotate(360deg); } }
    @keyframes twinkle { 0%,100% { opacity: 0.2; } 50% { opacity: 1; } }
    @keyframes fadeIn { from { opacity: 0; } to { opacity: 1; } }
    @keyframes slideUp { from { transform: translateY(12px); opacity: 0; } to { transform: translateY(0); opacity: 1; } }
    @keyframes dust { 0% { opacity: 0.6; transform: translateX(0) scale(1); } 100% { opacity: 0; transform: translateX(-40px) scale(2); } }

    .bg { fill: #0a0a0f; }
    .ground { fill: #1a1520; }
    .ground-line { fill: #334155; }

    .wagon-group {
      animation: roll 2s ease-out both, bump 0.8s ease-in-out infinite 2s;
    }

    .star { animation: twinkle 3s ease-in-out infinite; }

    .title-main {
      fill: #ffffff;
      font-family: -apple-system, 'Helvetica Neue', sans-serif;
      font-size: 28px;
      font-weight: 700;
      letter-spacing: -0.5px;
      animation: fadeIn 0.8s ease both 1.5s;
    }
    .title-sup {
      fill: #f59e0b;
      font-family: -apple-system, 'Helvetica Neue', sans-serif;
      font-size: 14px;
      font-weight: 500;
      animation: fadeIn 0.8s ease both 1.8s;
    }
    .title-author {
      fill: #64748b;
      font-family: -apple-system, 'Helvetica Neue', sans-serif;
      font-size: 14px;
      font-weight: 400;
      animation: fadeIn 0.8s ease both 2.0s;
    }

    .card1 { animation: slideUp 0.4s ease both 2.4s; }
    .card2 { animation: slideUp 0.4s ease both 2.7s; }
    .card3 { animation: slideUp 0.4s ease both 3.0s; }
    .card4 { animation: slideUp 0.4s ease both 3.3s; }
    .card-box { fill: #1e293b; stroke: #334155; stroke-width: 1; rx: 6; }
    .card-label { fill: #e0e0e8; font-family: -apple-system, sans-serif; font-size: 11px; font-weight: 500; }
    .card-icon { font-size: 14px; }

    .dust1 { animation: dust 1.5s ease-out infinite 2.2s; }
    .dust2 { animation: dust 1.5s ease-out infinite 2.5s; }
    .dust3 { animation: dust 1.8s ease-out infinite 2.8s; }
  </style>

  <rect class="bg" width="640" height="400" rx="8"/>

  <!-- Stars -->
  <rect class="star" x="45" y="30" width="2" height="2" fill="#f59e0b" opacity="0.5" style="animation-delay: 0.5s;"/>
  <rect class="star" x="120" y="55" width="2" height="2" fill="#f59e0b" opacity="0.6" style="animation-delay: 1.2s;"/>
  <rect class="star" x="200" y="20" width="2" height="2" fill="#f59e0b" opacity="0.4" style="animation-delay: 2.0s;"/>
  <rect class="star" x="340" y="40" width="2" height="2" fill="#f59e0b" opacity="0.3" style="animation-delay: 0.8s;"/>
  <rect class="star" x="450" y="25" width="2" height="2" fill="#f59e0b" opacity="0.5" style="animation-delay: 1.5s;"/>
  <rect class="star" x="530" y="50" width="2" height="2" fill="#f59e0b" opacity="0.6" style="animation-delay: 2.3s;"/>
  <rect class="star" x="580" y="18" width="2" height="2" fill="#f59e0b" opacity="0.4" style="animation-delay: 0.3s;"/>
  <rect class="star" x="75" y="80" width="2" height="2" fill="#f59e0b" opacity="0.3" style="animation-delay: 1.8s;"/>
  <rect class="star" x="490" y="70" width="2" height="2" fill="#f59e0b" opacity="0.5" style="animation-delay: 2.6s;"/>
  <rect class="star" x="290" y="65" width="2" height="2" fill="#f59e0b" opacity="0.4" style="animation-delay: 0.1s;"/>

  <!-- Ground -->
  <rect class="ground" x="0" y="240" width="640" height="160"/>
  <!-- Ground details (pixel-ish) -->
  <rect class="ground-line" x="0" y="240" width="30" height="2"/>
  <rect class="ground-line" x="60" y="240" width="50" height="2"/>
  <rect class="ground-line" x="140" y="240" width="15" height="2"/>
  <rect class="ground-line" x="200" y="240" width="70" height="2"/>
  <rect class="ground-line" x="310" y="240" width="40" height="2"/>
  <rect class="ground-line" x="400" y="240" width="20" height="2"/>
  <rect class="ground-line" x="460" y="240" width="55" height="2"/>
  <rect class="ground-line" x="560" y="240" width="80" height="2"/>

  <!-- Wagon (pixel art, pre-scaled: S=10, offset so wheels touch y=240) -->
  <!-- Origin: x=220 (center wagon ~x=12 -> 220+120=340≈center), y=50 (bottom at y=50+19*10=240) -->
  <g class="wagon-group" transform="translate(320, 240) scale(0.7) translate(-320, -240)">
    <!-- Wagon bed -->
    <rect fill="#f59e0b" x="300" y="150" width="10" height="50"/>
    <rect fill="#f59e0b" x="310" y="160" width="100" height="40"/>
    <rect fill="#f59e0b" x="410" y="150" width="10" height="50"/>
    <!-- Cargo bumps -->
    <rect fill="#b45309" x="320" y="150" width="30" height="10"/>
    <rect fill="#b45309" x="370" y="150" width="30" height="10"/>
    <!-- Canvas cover - arched -->
    <rect fill="#f59e0b" x="310" y="90" width="10" height="70"/>
    <rect fill="#f59e0b" x="410" y="90" width="10" height="70"/>
    <rect fill="#f59e0b" x="350" y="70" width="10" height="10"/>
    <rect fill="#f59e0b" x="360" y="70" width="10" height="10"/>
    <rect fill="#f59e0b" x="370" y="70" width="10" height="10"/>
    <rect fill="#f59e0b" x="320" y="80" width="10" height="10"/>
    <rect fill="#f59e0b" x="330" y="80" width="10" height="10"/>
    <rect fill="#f59e0b" x="340" y="80" width="10" height="10"/>
    <rect fill="#f59e0b" x="380" y="80" width="10" height="10"/>
    <rect fill="#f59e0b" x="390" y="80" width="10" height="10"/>
    <rect fill="#f59e0b" x="400" y="80" width="10" height="10"/>
    <!-- Canvas fill (darker) -->
    <rect fill="#b45309" x="320" y="90" width="90" height="10" opacity="0.5"/>
    <rect fill="#b45309" x="330" y="100" width="70" height="10" opacity="0.3"/>
    <!-- Canvas ribs -->
    <rect fill="#f59e0b" x="340" y="90" width="10" height="70" opacity="0.4"/>
    <rect fill="#f59e0b" x="380" y="90" width="10" height="70" opacity="0.4"/>
    <!-- Tongue/hitch -->
    <rect fill="#f59e0b" x="280" y="180" width="20" height="10"/>
    <rect fill="#f59e0b" x="270" y="190" width="10" height="10"/>
    <!-- Front wheel -->
    <rect fill="#f59e0b" x="320" y="200" width="10" height="10"/>
    <rect fill="#f59e0b" x="340" y="200" width="10" height="10"/>
    <rect fill="#f59e0b" x="310" y="210" width="10" height="10"/>
    <rect fill="#f59e0b" x="350" y="210" width="10" height="10"/>
    <rect fill="#f59e0b" x="310" y="220" width="10" height="10"/>
    <rect fill="#f59e0b" x="350" y="220" width="10" height="10"/>
    <rect fill="#f59e0b" x="320" y="230" width="10" height="10"/>
    <rect fill="#f59e0b" x="340" y="230" width="10" height="10"/>
    <rect fill="#b45309" x="330" y="210" width="10" height="20"/>
    <!-- Rear wheel -->
    <rect fill="#f59e0b" x="380" y="200" width="10" height="10"/>
    <rect fill="#f59e0b" x="400" y="200" width="10" height="10"/>
    <rect fill="#f59e0b" x="370" y="210" width="10" height="10"/>
    <rect fill="#f59e0b" x="410" y="210" width="10" height="10"/>
    <rect fill="#f59e0b" x="370" y="220" width="10" height="10"/>
    <rect fill="#f59e0b" x="410" y="220" width="10" height="10"/>
    <rect fill="#f59e0b" x="380" y="230" width="10" height="10"/>
    <rect fill="#f59e0b" x="400" y="230" width="10" height="10"/>
    <rect fill="#b45309" x="390" y="210" width="10" height="20"/>
  </g>

  <!-- Dust particles behind wagon -->
  <circle class="dust1" cx="275" cy="236" r="5" fill="#64748b" opacity="0"/>
  <circle class="dust2" cx="265" cy="230" r="3" fill="#64748b" opacity="0"/>
  <circle class="dust3" cx="270" cy="238" r="6" fill="#64748b" opacity="0"/>

  <!-- Title text -->
  <text class="title-main" x="320" y="300" text-anchor="middle">Lessons from the Frontier</text>
  <text class="title-sup" x="526" y="288" text-anchor="start">AI</text>
  <text class="title-author" x="320" y="324" text-anchor="middle">Daniel Rose</text>

  <!-- Curate cards at bottom -->
  <g class="card1">
    <rect class="card-box" x="100" y="350" width="100" height="30" rx="6"/>
    <text x="150" y="370" text-anchor="middle"><tspan class="card-icon">🎯 </tspan><tspan class="card-label" fill="#f59e0b">Context</tspan></text>
  </g>
  <g class="card2">
    <rect class="card-box" x="215" y="350" width="100" height="30" rx="6"/>
    <text x="265" y="370" text-anchor="middle"><tspan class="card-icon">🛠 </tspan><tspan class="card-label" fill="#6ea8fe">Tools</tspan></text>
  </g>
  <g class="card3">
    <rect class="card-box" x="330" y="350" width="100" height="30" rx="6"/>
    <text x="380" y="370" text-anchor="middle"><tspan class="card-icon">🔄 </tspan><tspan class="card-label" fill="#4ade80">Workflow</tspan></text>
  </g>
  <g class="card4">
    <rect class="card-box" x="445" y="350" width="100" height="30" rx="6"/>
    <text x="495" y="370" text-anchor="middle"><tspan class="card-icon">📦 </tspan><tspan class="card-label" fill="#fb7185">Output</tspan></text>
  </g>
</svg>
